<svg width="256" height="256" viewBox="0 0 256 256" xmlns="http://www.w3.org/2000/svg">
  <defs>
    <linearGradient id="bg" x1="0%" y1="0%" x2="100%" y2="100%">
      <stop offset="0%" style="stop-color:#1e1b4b;stop-opacity:0.8" />
      <stop offset="100%" style="stop-color:#7c3aed;stop-opacity:0.8" />
    </linearGradient>
    <linearGradient id="person" x1="0%" y1="0%" x2="100%" y2="100%">
      <stop offset="0%" style="stop-color:#ef4444;stop-opacity:0.9" />
      <stop offset="100%" style="stop-color:#dc2626;stop-opacity:0.9" />
    </linearGradient>
  </defs>
  
  <!-- Background -->
  <rect width="256" height="256" rx="20" fill="url(#bg)" />
  
  <!-- Computer Screen -->
  <rect x="40" y="60" width="120" height="80" rx="8" fill="#1f2937" stroke="#374151" stroke-width="2" />
  <rect x="50" y="70" width="100" height="60" rx="4" fill="#111827" />
  
  <!-- Screen Content (Frustrated Face) -->
  <circle cx="100" cy="100" r="15" fill="#fbbf24" />
  <path d="M 90 95 Q 100 85 110 95" stroke="#1f2937" stroke-width="2" fill="none" />
  <path d="M 95 105 Q 100 110 105 105" stroke="#1f2937" stroke-width="2" fill="none" />
  
  <!-- Person -->
  <circle cx="180" cy="80" r="20" fill="url(#person)" />
  <rect x="160" y="100" width="40" height="60" rx="20" fill="url(#person)" />
  
  <!-- Frustrated Expression -->
  <path d="M 170 75 Q 180 70 190 75" stroke="#1f2937" stroke-width="2" fill="none" />
  <path d="M 175 85 Q 180 90 185 85" stroke="#1f2937" stroke-width="2" fill="none" />
  
  <!-- Stress Lines -->
  <path d="M 200 60 L 210 50" stroke="#ef4444" stroke-width="2" />
  <path d="M 205 65 L 215 55" stroke="#ef4444" stroke-width="2" />
  <path d="M 210 70 L 220 60" stroke="#ef4444" stroke-width="2" />
  
  <!-- Text -->
  <text x="128" y="200" text-anchor="middle" fill="#fbbf24" font-family="Arial, sans-serif" font-size="14" font-weight="bold">Content Creation Struggle</text>
</svg>






